<?xml version="1.0" encoding="utf-8"?>
<!-- Generator: Adobe Illustrator 16.0.4, SVG Export Plug-In . SVG Version: 6.00 Build 0)  -->
<!DOCTYPE svg PUBLIC "-//W3C//DTD SVG 1.1//EN" "http://www.w3.org/Graphics/SVG/1.1/DTD/svg11.dtd">
<svg version="1.1" id="Layer_1" xmlns="http://www.w3.org/2000/svg" xmlns:xlink="http://www.w3.org/1999/xlink" x="0px" y="0px"
	 width="328px" height="328px" viewBox="0 0 328 328" enable-background="new 0 0 328 328" xml:space="preserve">
<rect display="none" fill="#666666" width="328" height="328"/>
<g>
	<path fill-rule="evenodd" clip-rule="evenodd" fill="#FFFFFF" d="M165.51,93.12c-39.36-0.33-72.27,32.11-72.5,71.46
		c-0.23,39.43,32.16,72.17,71.57,72.36c39.41,0.199,72.13-32.261,72.26-71.681C236.98,126.09,204.7,93.45,165.51,93.12z
		 M205.57,119.3c-8.681,10.67-19.5,17.3-31.73,21.86c-7.62-11.97-15.01-23.57-22.79-35.78C171.61,101.44,189.55,105.64,205.57,119.3
		z M139.14,109.46c7.54,11.74,14.95,23.26,22.79,35.46c-19.12,5.18-37.62,7.33-57.16,7.74
		C109.73,132.73,120.84,118.81,139.14,109.46z M103.75,163.88c11-0.96,21.46-1.51,31.82-2.88c8.56-1.14,17.09-2.87,25.45-5.07
		c4.37-1.15,6.9-0.79,8.22,3.76c0.45,1.58,1.319,3.03,2.25,5.1c-22.38,7.229-39.15,21.54-52.19,41.2
		C108.47,193.58,103.4,179.74,103.75,163.88z M186.22,222.55c-20.979,7.2-40.479,4.37-58.74-8.8c7.92-16.45,31.45-34.89,49.43-38.28
		c3.859,14.59,7.78,29.29,11.5,44.04C188.61,220.32,187.22,222.2,186.22,222.55z M199.82,215.55c-4.021-14.67-7.9-28.83-11.86-43.28
		c12.58-1.859,24.79-0.93,37.42,2.57C222.46,192.32,213.72,205.42,199.82,215.55z M211.01,162.5c-7.779-0.32-15.6-0.51-23.38-0.17
		c-3.27,0.14-4.83-0.65-5.79-3.67c-0.85-2.65-2.18-5.14-2.859-6.72c11.619-8.07,22.829-15.86,34.329-23.84
		c6.841,5.88,13.5,23.94,12.341,35.99C220.77,163.54,215.91,162.71,211.01,162.5z"/>
</g>
</svg>
