<?xml version="1.0" encoding="utf-8"?>
<!-- Generator: Adobe Illustrator 16.0.4, SVG Export Plug-In . SVG Version: 6.00 Build 0)  -->
<!DOCTYPE svg PUBLIC "-//W3C//DTD SVG 1.1//EN" "http://www.w3.org/Graphics/SVG/1.1/DTD/svg11.dtd">
<svg version="1.1" id="Layer_1" xmlns="http://www.w3.org/2000/svg" xmlns:xlink="http://www.w3.org/1999/xlink" x="0px" y="0px"
	 width="328px" height="328px" viewBox="0 0 328 328" enable-background="new 0 0 328 328" xml:space="preserve">
<rect display="none" fill="#666666" width="328" height="328"/>
<g display="none">
	<path display="inline" fill-rule="evenodd" clip-rule="evenodd" fill="#FFFFFF" d="M165.51,93.12
		c-39.36-0.33-72.27,32.11-72.5,71.46c-0.23,39.43,32.16,72.17,71.57,72.36c39.41,0.199,72.13-32.261,72.26-71.681
		C236.98,126.09,204.7,93.45,165.51,93.12z M205.57,119.3c-8.681,10.67-19.5,17.3-31.73,21.86c-7.62-11.97-15.01-23.57-22.79-35.78
		C171.61,101.44,189.55,105.64,205.57,119.3z M139.14,109.46c7.54,11.74,14.95,23.26,22.79,35.46c-19.12,5.18-37.62,7.33-57.16,7.74
		C109.73,132.73,120.84,118.81,139.14,109.46z M103.75,163.88c11-0.96,21.46-1.51,31.82-2.88c8.56-1.14,17.09-2.87,25.45-5.07
		c4.37-1.15,6.9-0.79,8.22,3.76c0.45,1.58,1.319,3.03,2.25,5.1c-22.38,7.229-39.15,21.54-52.19,41.2
		C108.47,193.58,103.4,179.74,103.75,163.88z M186.22,222.55c-20.979,7.2-40.479,4.37-58.74-8.8c7.92-16.45,31.45-34.89,49.43-38.28
		c3.859,14.59,7.78,29.29,11.5,44.04C188.61,220.32,187.22,222.2,186.22,222.55z M199.82,215.55c-4.021-14.67-7.9-28.83-11.86-43.28
		c12.58-1.859,24.79-0.93,37.42,2.57C222.46,192.32,213.72,205.42,199.82,215.55z M211.01,162.5c-7.779-0.32-15.6-0.51-23.38-0.17
		c-3.27,0.14-4.83-0.65-5.79-3.67c-0.85-2.65-2.18-5.14-2.859-6.72c11.619-8.07,22.829-15.86,34.329-23.84
		c6.841,5.88,13.5,23.94,12.341,35.99C220.77,163.54,215.91,162.71,211.01,162.5z"/>
</g>
<g display="none">
	<path display="inline" fill-rule="evenodd" clip-rule="evenodd" fill="#FFFFFF" d="M202.04,114.32c0.08,2.97-1.32,3.72-3.95,3.65
		c-4.16-0.1-8.33-0.09-12.5,0.01c-6.34,0.16-9.59,2.94-10.149,9.3c-0.45,5.13-0.181,10.31-0.351,15.47c-0.1,3.18,1.88,3.4,4.25,3.38
		c6.771-0.03,13.55-0.01,21.09-0.01c-0.989,8.51-1.71,15.93-2.899,23.27c-0.15,0.94-2.561,2.061-4.061,2.12
		c-5.62,0.25-11.47,0.101-17.47,0.101V237h-27v-65.73c-7,0-12.32-0.13-18.08,0.051c-3.48,0.1-4.71-1.08-4.52-4.67
		c0.35-6.45,0.04-12.92,0.04-20.5c6.5,0,12.09-0.15,17.69,0.06c3.51,0.12,4.6-1.22,4.53-4.66c-0.14-6.49-0.4-13.05,0.37-19.46
		c2.16-17.82,13.38-28.11,31.3-28.88c5.96-0.26,11.96,0.5,17.95,0.67c2.689,0.08,3.87,1.14,3.79,3.95
		C201.92,103.32,201.9,108.83,202.04,114.32z"/>
</g>
<g display="none">
	<path display="inline" fill-rule="evenodd" clip-rule="evenodd" fill="#FFFFFF" d="M236.75,171.41
		c-1.34,28.08-21.21,53.67-47.66,62.81c-4.109,1.42-6,0.23-6.149-4.17c-0.16-4.66,0.27-9.35-0.12-13.979
		c-0.5-5.99-1.551-11.931-2.391-18.061c2.95-0.779,7.29-1.46,11.261-3.06c18.1-7.3,25.229-32.4,14.229-48.92
		c-1.1-1.67-1.21-4.12-1.39-6.25c-0.33-3.93-0.25-7.91-0.58-11.84c-0.34-4.17-3.09-4.74-6.42-3.64c-2.67,0.89-5.521,1.71-7.79,3.29
		c-4.57,3.17-9.13,3.01-14.5,2.48c-8.01-0.79-16.2,0.29-24.31,0.33c-2.46,0.02-5.05-0.46-7.37-1.28c-3.91-1.38-7.59-3.4-11.48-4.82
		c-3.11-1.14-5.59-0.4-6.09,3.46c-0.32,2.47-1.45,5.14-0.87,7.36c1.55,5.99-0.93,10.54-3.42,15.68
		c-8.95,18.521,2.25,41.271,22.15,45.88c2.26,0.521,4.54,0.96,6.93,1.46c-1.09,2.73-1.88,5.42-3.21,7.811
		c-0.7,1.27-2.19,2.479-3.57,2.92c-7.3,2.33-12.64,0.22-17.14-6.46c-4.49-6.67-8.69-8.79-14.16-7.141
		c-0.65,0.641-1.29,1.28-1.94,1.921c1.55,0.609,3.48,0.84,4.56,1.92c2.43,2.43,5.34,4.97,6.45,8.04
		c3.35,9.199,10.33,11.479,18.96,11.399c1.82-0.02,3.64-0.22,6.34-0.39c0,4.54,0.32,8.96-0.11,13.31
		c-0.34,3.48-2.85,4.021-5.94,2.82c-26.04-10.12-42.34-28.81-46.81-56.33c-4.79-29.48,5.58-53.85,30-70.87
		c23.95-16.68,50.03-17.99,75.54-3.75C225.99,117.98,238.18,141.48,236.75,171.41z"/>
</g>
<g display="none">
	<path display="inline" fill-rule="evenodd" clip-rule="evenodd" fill="#FFFFFF" d="M234.84,228.59c0.22,5-1.8,6.44-6.39,6.24
		c-5.32-0.22-10.67-0.23-15.99,0.02c-4.28,0.2-5.93-1.35-5.87-5.729c0.21-15.16,0.16-30.33,0.15-45.49
		c-0.01-2.31-0.101-4.689-0.63-6.92c-1.9-8.02-5.811-12.1-11.62-12.52c-9.221-0.65-16.33,2.82-18.771,10.64
		c-1.8,5.74-2.43,12.01-2.609,18.08c-0.37,12.49-0.17,24.99-0.011,37.479c0.04,3.17-0.75,4.54-4.149,4.431
		c-6.49-0.21-12.99-0.17-19.49-0.051c-3.24,0.061-4.36-1.27-4.35-4.449c0.07-27.99,0-55.98,0.17-83.97c0.01-1.33,2.1-3.74,3.2-3.79
		c7.46-0.34,14.52-0.18,23.52-0.18v12.06c0,0.39,1.05,0.79,1.69,1.19c0.279-0.92,0.27-2,0.819-2.72
		c8.01-10.43,18.78-14.34,31.58-13.07c6.771,0.67,13.4,1.77,18.78,6.82c4.91,4.6,6.92,10.32,8.02,16.69
		C236.65,185.02,233.88,206.86,234.84,228.59z"/>
	<rect x="97" y="143" display="inline" fill-rule="evenodd" clip-rule="evenodd" fill="#FFFFFF" width="28" height="92"/>
	<path display="inline" fill-rule="evenodd" clip-rule="evenodd" fill="#FFFFFF" d="M128.27,111.83c0.1,9.31-7.41,16.9-16.65,16.86
		c-9.54-0.04-17.26-7.31-17.34-16.33c-0.09-9.7,7.53-17.14,17.52-17.14C120.81,95.23,128.18,102.66,128.27,111.83z"/>
</g>
<g>
	<path fill-rule="evenodd" clip-rule="evenodd" fill="#FFFFFF" d="M329,1H1c1.5-0.33,3-0.96,4.5-0.96C89.17-0.01,172.83,0,256.5,0
		c22.83,0,45.67-0.02,68.5,0.04C326.33,0.05,327.67,0.67,329,1z"/>
	<path fill-rule="evenodd" clip-rule="evenodd" fill="#FFFFFF" d="M236.08,121.89c-3.311,3.45-6.4,7.16-10,10.28
		c-2.73,2.37-3.8,4.76-3.99,8.46c-1.689,33.561-16.3,59.72-46.77,74.811c-26.03,12.89-52.541,11.38-78.17-2.58
		c-0.43-0.23-0.81-0.57-1.19-0.891c-0.1-0.08-0.11-0.26-0.13-0.3c6.92-1.05,14.06-1.39,20.73-3.34c6.65-1.95,12.82-5.53,18.98-9.12
		c-12.47-2.8-21.4-8.81-25.92-21.03c3.82-0.17,7.07-0.33,10.32-0.479c-12.5-5.91-20.1-14.89-21.03-29.48
		c4.03,1.09,7.58,2.06,11.14,3.03c-11.05-11.62-14.09-24.23-7.17-39.72C119.29,130.39,139,140.8,163,142.52v-5.72
		c0-12.05,5.18-21.34,15.71-27.09c10.83-5.91,21.77-5.01,31.46,2.49c3.79,2.94,6.92,3.13,10.84,1.49
		c3.52-1.47,7.08-2.86,11.771-3.57c-3.29,4.61-6.585,9.23-10.245,14.35c4.5-1.18,8.731-2.28,12.962-3.38
		C235.688,121.36,235.88,121.62,236.08,121.89z"/>
</g>
</svg>
